
<global>
amp_veltrack=0
</global>

<group>
ampeg_release=0.75
group_label=PP_sustain
xf_cccurve=gain
xfin_hicc1=42
xfout_hicc1=84
xfout_locc1=43

<region>
hivel=127
key=G3
loop_end=185399
loop_mode=loop_continuous
loop_start=60496
loop_xfade=17299
lovel=0
offset=12532
sample=Basstrombone_sustain_PP_G3.opus
tune=-11
</region>

<region>
hivel=127
key=G2
loop_end=185399
loop_mode=loop_continuous
loop_start=60496
loop_xfade=17299
lovel=0
offset=13209
sample=Basstrombone_sustain_PP_G2.opus
tune=-27
</region>

<region>
hivel=127
key=G1
loop_end=185399
loop_mode=loop_continuous
loop_start=60496
loop_xfade=17299
lovel=0
offset=16549
sample=Basstrombone_sustain_PP_G1.opus
tune=-22
</region>

<region>
hivel=127
key=G#3
loop_end=185399
loop_mode=loop_continuous
loop_start=60496
loop_xfade=17299
lovel=0
offset=11038
sample=Basstrombone_sustain_PP_G#3.opus
tune=-7
</region>

<region>
hivel=127
key=G#2
loop_end=185364
loop_mode=loop_continuous
loop_start=60485
loop_xfade=17296
lovel=0
offset=11802
sample=Basstrombone_sustain_PP_G#2.opus
tune=-15
</region>

<region>
hivel=127
key=G#1
loop_end=185399
loop_mode=loop_continuous
loop_start=60496
loop_xfade=17299
lovel=0
offset=15558
sample=Basstrombone_sustain_PP_G#1.opus
tune=-12
</region>

<region>
hivel=127
key=F3
loop_end=185399
loop_mode=loop_continuous
loop_start=60496
loop_xfade=17299
lovel=0
offset=13247
sample=Basstrombone_sustain_PP_F3.opus
tune=-17
</region>

<region>
hivel=127
key=F2
loop_end=185399
loop_mode=loop_continuous
loop_start=60496
loop_xfade=17299
lovel=0
offset=12644
sample=Basstrombone_sustain_PP_F2.opus
tune=-7
</region>

<region>
hivel=127
key=F1
loop_end=185399
loop_mode=loop_continuous
loop_start=60496
loop_xfade=17299
lovel=0
offset=11021
sample=Basstrombone_sustain_PP_F1.opus
tune=+44
</region>

<region>
hivel=127
key=F#3
loop_end=185399
loop_mode=loop_continuous
loop_start=60496
loop_xfade=17299
lovel=0
offset=14413
sample=Basstrombone_sustain_PP_F#3.opus
tune=-27
</region>

<region>
hivel=127
key=F#2
loop_end=185399
loop_mode=loop_continuous
loop_start=60496
loop_xfade=17299
lovel=0
offset=15024
sample=Basstrombone_sustain_PP_F#2.opus
tune=-19
</region>

<region>
hivel=127
key=F#1
loop_end=185399
loop_mode=loop_continuous
loop_start=60496
loop_xfade=17299
lovel=0
offset=9374
sample=Basstrombone_sustain_PP_F#1.opus
</region>

<region>
hivel=127
key=E3
loop_end=185399
loop_mode=loop_continuous
loop_start=60496
loop_xfade=17299
lovel=0
offset=12334
sample=Basstrombone_sustain_PP_E3.opus
tune=-12
</region>

<region>
hivel=127
key=E2
loop_end=184991
loop_mode=loop_continuous
loop_start=60363
loop_xfade=17261
lovel=0
offset=11922
sample=Basstrombone_sustain_PP_E2.opus
tune=-12
</region>

<region>
hikey=E1
hivel=127
lokey=A#0
loop_end=185399
loop_mode=loop_continuous
loop_start=60496
loop_xfade=17299
lovel=0
offset=15702
pitch_keycenter=E1
sample=Basstrombone_sustain_PP_E1.opus
tune=+1
</region>

<region>
hivel=127
key=D3
loop_end=185399
loop_mode=loop_continuous
loop_start=60496
loop_xfade=17299
lovel=0
offset=12430
sample=Basstrombone_sustain_PP_D3.opus
tune=-27
</region>

<region>
hivel=127
key=D2
loop_end=185399
loop_mode=loop_continuous
loop_start=60496
loop_xfade=17299
lovel=0
offset=14560
sample=Basstrombone_sustain_PP_D2.opus
tune=-18
</region>

<region>
hivel=127
key=D#3
loop_end=185399
loop_mode=loop_continuous
loop_start=60496
loop_xfade=17299
lovel=0
offset=11981
sample=Basstrombone_sustain_PP_D#3.opus
tune=-32
</region>

<region>
hivel=127
key=D#2
loop_end=178815
loop_mode=loop_continuous
loop_start=58348
loop_xfade=16685
lovel=0
offset=15247
sample=Basstrombone_sustain_PP_D#2.opus
tune=+29
</region>

<region>
hikey=D#5
hivel=127
lokey=C4
loop_end=184528
loop_mode=loop_continuous
loop_start=60212
loop_xfade=17218
lovel=0
offset=10810
sample=Basstrombone_sustain_PP_C4.opus
tune=-15
</region>

<region>
hivel=127
key=C3
loop_end=185399
loop_mode=loop_continuous
loop_start=60496
loop_xfade=17299
lovel=0
offset=10016
sample=Basstrombone_sustain_PP_C3.opus
tune=-13
</region>

<region>
hivel=127
key=C2
loop_end=185399
loop_mode=loop_continuous
loop_start=60496
loop_xfade=17299
lovel=0
offset=10924
sample=Basstrombone_sustain_PP_C2.opus
tune=-10
</region>

<region>
hivel=127
key=C#3
loop_end=185399
loop_mode=loop_continuous
loop_start=60496
loop_xfade=17299
lovel=0
offset=15137
sample=Basstrombone_sustain_PP_C#3.opus
tune=-17
</region>

<region>
hivel=127
key=C#2
loop_end=185123
loop_mode=loop_continuous
loop_start=60406
loop_xfade=17273
lovel=0
offset=21179
sample=Basstrombone_sustain_PP_C#2.opus
tune=-13
</region>

<region>
hivel=127
key=B3
loop_end=185399
loop_mode=loop_continuous
loop_start=60496
loop_xfade=17299
lovel=0
offset=11840
sample=Basstrombone_sustain_PP_B3.opus
tune=-15
</region>

<region>
hivel=127
key=B2
loop_end=185399
loop_mode=loop_continuous
loop_start=60496
loop_xfade=17299
lovel=0
offset=12235
sample=Basstrombone_sustain_PP_B2.opus
tune=-10
</region>

<region>
hivel=127
key=B1
loop_end=185399
loop_mode=loop_continuous
loop_start=60496
loop_xfade=17299
lovel=0
offset=12893
sample=Basstrombone_sustain_PP_B1.opus
tune=-22
</region>

<region>
hivel=127
key=A3
loop_end=185399
loop_mode=loop_continuous
loop_start=60496
loop_xfade=17299
lovel=0
offset=10080
sample=Basstrombone_sustain_PP_A3.opus
tune=-12
</region>

<region>
hivel=127
key=A2
loop_end=185399
loop_mode=loop_continuous
loop_start=60496
loop_xfade=17299
lovel=0
offset=14932
sample=Basstrombone_sustain_PP_A2.opus
tune=-15
</region>

<region>
hivel=127
key=A1
loop_end=185399
loop_mode=loop_continuous
loop_start=60496
loop_xfade=17299
lovel=0
offset=18062
sample=Basstrombone_sustain_PP_A1.opus
tune=-8
</region>

<region>
hivel=127
key=A#3
loop_end=185399
loop_mode=loop_continuous
loop_start=60496
loop_xfade=17299
lovel=0
offset=10728
sample=Basstrombone_sustain_PP_A#3.opus
tune=-6
</region>

<region>
hivel=127
key=A#2
loop_end=185399
loop_mode=loop_continuous
loop_start=60496
loop_xfade=17299
lovel=0
offset=13126
sample=Basstrombone_sustain_PP_A#2.opus
tune=-14
</region>

<region>
hivel=127
key=A#1
loop_end=185399
loop_mode=loop_continuous
loop_start=60496
loop_xfade=17299
lovel=0
offset=16820
sample=Basstrombone_sustain_PP_A#1.opus
tune=-11
</region>
</group>

<group>
ampeg_release=0.75
group_label=MF_sustain
xf_cccurve=gain
xfin_hicc1=84
xfin_locc1=43
xfout_hicc1=127
xfout_locc1=85

<region>
hivel=127
key=G3
loop_end=178473
loop_mode=loop_continuous
loop_start=58236
loop_xfade=16653
lovel=0
offset=2061
sample=Basstrombone_sustain_MF_G3.opus
tune=-14
</region>

<region>
hivel=127
key=G2
loop_end=180000
loop_mode=loop_continuous
loop_start=58734
loop_xfade=16795
lovel=0
offset=4161
sample=Basstrombone_sustain_MF_G2.opus
tune=-18
</region>

<region>
hivel=127
key=G1
loop_end=185399
loop_mode=loop_continuous
loop_start=60496
loop_xfade=17299
lovel=0
offset=11680
sample=Basstrombone_sustain_MF_G1.opus
tune=-4
</region>

<region>
hivel=127
key=G#3
loop_end=177986
loop_mode=loop_continuous
loop_start=58077
loop_xfade=16607
lovel=0
offset=2575
sample=Basstrombone_sustain_MF_G#3.opus
tune=-6
</region>

<region>
hivel=127
key=G#2
loop_end=178932
loop_mode=loop_continuous
loop_start=58386
loop_xfade=16696
lovel=0
offset=3723
sample=Basstrombone_sustain_MF_G#2.opus
tune=-14
</region>

<region>
hivel=127
key=G#1
loop_end=179684
loop_mode=loop_continuous
loop_start=58631
loop_xfade=16766
lovel=0
offset=4788
sample=Basstrombone_sustain_MF_G#1.opus
tune=-17
</region>

<region>
hivel=127
key=F3
loop_end=179956
loop_mode=loop_continuous
loop_start=58720
loop_xfade=16791
lovel=0
offset=1962
sample=Basstrombone_sustain_MF_F3.opus
tune=-16
</region>

<region>
hivel=127
key=F2
loop_end=183498
loop_mode=loop_continuous
loop_start=59875
loop_xfade=17122
lovel=0
offset=9022
sample=Basstrombone_sustain_MF_F2.opus
tune=+4
</region>

<region>
hivel=127
key=F1
loop_end=185399
loop_mode=loop_continuous
loop_start=60496
loop_xfade=17299
lovel=0
offset=14579
sample=Basstrombone_sustain_MF_F1.opus
tune=+2
</region>

<region>
hivel=127
key=F#3
loop_end=179729
loop_mode=loop_continuous
loop_start=58646
loop_xfade=16770
lovel=0
offset=1651
sample=Basstrombone_sustain_MF_F#3.opus
tune=-13
</region>

<region>
hivel=127
key=F#2
loop_end=185149
loop_mode=loop_continuous
loop_start=60414
loop_xfade=17276
lovel=0
offset=9596
sample=Basstrombone_sustain_MF_F#2.opus
tune=-17
</region>

<region>
hivel=127
key=F#1
loop_end=185399
loop_mode=loop_continuous
loop_start=60496
loop_xfade=17299
lovel=0
offset=5657
sample=Basstrombone_sustain_MF_F#1.opus
tune=-11
</region>

<region>
hivel=127
key=E3
loop_end=179991
loop_mode=loop_continuous
loop_start=58731
loop_xfade=16794
lovel=0
offset=3462
sample=Basstrombone_sustain_MF_E3.opus
tune=-11
</region>

<region>
hivel=127
key=E2
loop_end=184858
loop_mode=loop_continuous
loop_start=60319
loop_xfade=17249
lovel=0
offset=9725
sample=Basstrombone_sustain_MF_E2.opus
tune=-8
</region>

<region>
hikey=E1
hivel=127
lokey=A#0
loop_end=184330
loop_mode=loop_continuous
loop_start=60147
loop_xfade=17199
lovel=0
offset=10794
pitch_keycenter=E1
sample=Basstrombone_sustain_MF_E1.opus
tune=-15
</region>

<region>
hivel=127
key=D3
loop_end=180873
loop_mode=loop_continuous
loop_start=59019
loop_xfade=16877
lovel=0
offset=2735
sample=Basstrombone_sustain_MF_D3.opus
tune=-23
</region>

<region>
hivel=127
key=D2
loop_end=185178
loop_mode=loop_continuous
loop_start=60424
loop_xfade=17278
lovel=0
offset=11630
sample=Basstrombone_sustain_MF_D2.opus
tune=-14
</region>

<region>
hivel=127
key=D#3
loop_end=179327
loop_mode=loop_continuous
loop_start=58514
loop_xfade=16732
lovel=0
offset=5307
sample=Basstrombone_sustain_MF_D#3.opus
tune=-18
</region>

<region>
hivel=127
key=D#2
loop_end=179399
loop_mode=loop_continuous
loop_start=58538
loop_xfade=16739
lovel=0
offset=11579
sample=Basstrombone_sustain_MF_D#2.opus
</region>

<region>
hikey=D#5
hivel=127
lokey=C4
loop_end=179511
loop_mode=loop_continuous
loop_start=58574
loop_xfade=16750
lovel=0
offset=3392
sample=Basstrombone_sustain_MF_C4.opus
tune=+9
</region>

<region>
hivel=127
key=C3
loop_end=178025
loop_mode=loop_continuous
loop_start=58090
loop_xfade=16611
lovel=0
offset=3654
sample=Basstrombone_sustain_MF_C3.opus
tune=-6
</region>

<region>
hivel=127
key=C2
loop_end=184597
loop_mode=loop_continuous
loop_start=60234
loop_xfade=17224
lovel=0
offset=11671
sample=Basstrombone_sustain_MF_C2.opus
tune=-2
</region>

<region>
hivel=127
key=C#3
loop_end=178361
loop_mode=loop_continuous
loop_start=58199
loop_xfade=16642
lovel=0
offset=2498
sample=Basstrombone_sustain_MF_C#3.opus
tune=-16
</region>

<region>
hivel=127
key=C#2
loop_end=185229
loop_mode=loop_continuous
loop_start=60440
loop_xfade=17283
lovel=0
offset=13090
sample=Basstrombone_sustain_MF_C#2.opus
tune=-11
</region>

<region>
hivel=127
key=B3
loop_end=179388
loop_mode=loop_continuous
loop_start=58535
loop_xfade=16738
lovel=0
offset=3603
sample=Basstrombone_sustain_MF_B3.opus
tune=-15
</region>

<region>
hivel=127
key=B2
loop_end=179683
loop_mode=loop_continuous
loop_start=58631
loop_xfade=16766
lovel=0
offset=3023
sample=Basstrombone_sustain_MF_B2.opus
tune=-20
</region>

<region>
hivel=127
key=B1
loop_end=185399
loop_mode=loop_continuous
loop_start=60496
loop_xfade=17299
lovel=0
offset=11211
sample=Basstrombone_sustain_MF_B1.opus
tune=-29
</region>

<region>
hivel=127
key=A3
loop_end=178066
loop_mode=loop_continuous
loop_start=58103
loop_xfade=16615
lovel=0
offset=4106
sample=Basstrombone_sustain_MF_A3.opus
tune=-5
</region>

<region>
hivel=127
key=A2
loop_end=179902
loop_mode=loop_continuous
loop_start=58702
loop_xfade=16786
lovel=0
offset=3913
sample=Basstrombone_sustain_MF_A2.opus
tune=-16
</region>

<region>
hivel=127
key=A1
loop_end=178602
loop_mode=loop_continuous
loop_start=58278
loop_xfade=16665
lovel=0
offset=3255
sample=Basstrombone_sustain_MF_A1.opus
tune=-17
</region>

<region>
hivel=127
key=A#3
loop_end=178794
loop_mode=loop_continuous
loop_start=58341
loop_xfade=16683
lovel=0
offset=6131
sample=Basstrombone_sustain_MF_A#3.opus
tune=-8
</region>

<region>
hivel=127
key=A#2
loop_end=180291
loop_mode=loop_continuous
loop_start=58829
loop_xfade=16822
lovel=0
offset=2086
sample=Basstrombone_sustain_MF_A#2.opus
tune=-6
</region>

<region>
hivel=127
key=A#1
loop_end=184287
loop_mode=loop_continuous
loop_start=60133
loop_xfade=17195
lovel=0
offset=12011
sample=Basstrombone_sustain_MF_A#1.opus
tune=-10
</region>
</group>

<group>
ampeg_release=0.75
group_label=FF_sustain
xf_cccurve=gain
xfin_hicc1=127
xfin_locc1=85
xfout_hicc1=127
xfout_locc1=127

<region>
hivel=127
key=G3
loop_end=179499
loop_mode=loop_continuous
loop_start=58571
loop_xfade=16748
lovel=0
offset=3743
sample=Basstrombone_sustain_FF_G3.opus
tune=-13
</region>

<region>
hivel=127
key=G2
loop_end=179222
loop_mode=loop_continuous
loop_start=58480
loop_xfade=16723
lovel=0
offset=2409
sample=Basstrombone_sustain_FF_G2.opus
tune=-23
</region>

<region>
hivel=127
key=G1
loop_end=182439
loop_mode=loop_continuous
loop_start=59530
loop_xfade=17023
lovel=0
offset=5727
sample=Basstrombone_sustain_FF_G1.opus
tune=-16
</region>

<region>
hivel=127
key=G#3
loop_end=182382
loop_mode=loop_continuous
loop_start=59512
loop_xfade=17017
lovel=0
offset=1780
sample=Basstrombone_sustain_FF_G#3.opus
tune=-16
</region>

<region>
hivel=127
key=G#2
loop_end=181253
loop_mode=loop_continuous
loop_start=59143
loop_xfade=16912
lovel=0
offset=2397
sample=Basstrombone_sustain_FF_G#2.opus
tune=-11
</region>

<region>
hivel=127
key=G#1
loop_end=155485
loop_mode=loop_continuous
loop_start=50735
loop_xfade=14508
lovel=0
offset=3948
sample=Basstrombone_sustain_FF_G#1.opus
tune=-16
</region>

<region>
hivel=127
key=F3
loop_end=178859
loop_mode=loop_continuous
loop_start=58362
loop_xfade=16689
lovel=0
offset=3975
sample=Basstrombone_sustain_FF_F3.opus
tune=-21
</region>

<region>
hivel=127
key=F2
loop_end=178355
loop_mode=loop_continuous
loop_start=58197
loop_xfade=16642
lovel=0
offset=3726
sample=Basstrombone_sustain_FF_F2.opus
tune=-6
</region>

<region>
hivel=127
key=F1
loop_end=185399
loop_mode=loop_continuous
loop_start=60496
loop_xfade=17299
lovel=0
offset=8164
sample=Basstrombone_sustain_FF_F1.opus
tune=+7
</region>

<region>
hivel=127
key=F#3
loop_end=179199
loop_mode=loop_continuous
loop_start=58473
loop_xfade=16720
lovel=0
offset=1883
sample=Basstrombone_sustain_FF_F#3.opus
tune=-12
</region>

<region>
hivel=127
key=F#2
loop_end=180858
loop_mode=loop_continuous
loop_start=59014
loop_xfade=16875
lovel=0
offset=1654
sample=Basstrombone_sustain_FF_F#2.opus
tune=-15
</region>

<region>
hivel=127
key=F#1
loop_end=177863
loop_mode=loop_continuous
loop_start=58037
loop_xfade=16596
lovel=0
offset=3307
sample=Basstrombone_sustain_FF_F#1.opus
tune=-14
</region>

<region>
hivel=127
key=E3
loop_end=180188
loop_mode=loop_continuous
loop_start=58795
loop_xfade=16813
lovel=0
offset=4022
sample=Basstrombone_sustain_FF_E3.opus
tune=-17
</region>

<region>
hivel=127
key=E2
loop_end=176394
loop_mode=loop_continuous
loop_start=57557
loop_xfade=16459
lovel=0
offset=2185
sample=Basstrombone_sustain_FF_E2.opus
tune=-18
</region>

<region>
hikey=E1
hivel=127
lokey=A#0
loop_end=185399
loop_mode=loop_continuous
loop_start=60496
loop_xfade=17299
lovel=0
offset=9047
pitch_keycenter=E1
sample=Basstrombone_sustain_FF_E1.opus
tune=-18
</region>

<region>
hivel=127
key=D3
loop_end=181302
loop_mode=loop_continuous
loop_start=59159
loop_xfade=16917
lovel=0
offset=2010
sample=Basstrombone_sustain_FF_D3.opus
tune=-11
</region>

<region>
hivel=127
key=D2
loop_end=185399
loop_mode=loop_continuous
loop_start=60496
loop_xfade=17299
lovel=0
offset=8808
sample=Basstrombone_sustain_FF_D2.opus
tune=-22
</region>

<region>
hivel=127
key=D#3
loop_end=180916
loop_mode=loop_continuous
loop_start=59033
loop_xfade=16881
lovel=0
offset=3255
sample=Basstrombone_sustain_FF_D#3.opus
tune=-23
</region>

<region>
hivel=127
key=D#2
loop_end=179315
loop_mode=loop_continuous
loop_start=58511
loop_xfade=16731
lovel=0
offset=7004
sample=Basstrombone_sustain_FF_D#2.opus
tune=-11
</region>

<region>
hikey=D#5
hivel=127
lokey=C4
loop_end=179814
loop_mode=loop_continuous
loop_start=58673
loop_xfade=16778
lovel=0
offset=2924
sample=Basstrombone_sustain_FF_C4.opus
tune=-10
</region>

<region>
hivel=127
key=C3
loop_end=180809
loop_mode=loop_continuous
loop_start=58998
loop_xfade=16871
lovel=0
offset=2169
sample=Basstrombone_sustain_FF_C3.opus
tune=-8
</region>

<region>
hivel=127
key=C2
loop_end=183923
loop_mode=loop_continuous
loop_start=60014
loop_xfade=17161
lovel=0
offset=6717
sample=Basstrombone_sustain_FF_C2.opus
tune=-26
</region>

<region>
hivel=127
key=C#3
loop_end=179764
loop_mode=loop_continuous
loop_start=58657
loop_xfade=16773
lovel=0
offset=2519
sample=Basstrombone_sustain_FF_C#3.opus
tune=-19
</region>

<region>
hivel=127
key=C#2
loop_end=185399
loop_mode=loop_continuous
loop_start=60496
loop_xfade=17299
lovel=0
offset=8653
sample=Basstrombone_sustain_FF_C#2.opus
tune=-21
</region>

<region>
hivel=127
key=B3
loop_end=179552
loop_mode=loop_continuous
loop_start=58588
loop_xfade=16753
lovel=0
offset=3182
sample=Basstrombone_sustain_FF_B3.opus
tune=-13
</region>

<region>
hivel=127
key=B2
loop_end=179819
loop_mode=loop_continuous
loop_start=58675
loop_xfade=16778
lovel=0
offset=2029
sample=Basstrombone_sustain_FF_B2.opus
tune=-16
</region>

<region>
hivel=127
key=B1
loop_end=185170
loop_mode=loop_continuous
loop_start=60421
loop_xfade=17278
lovel=0
offset=10493
sample=Basstrombone_sustain_FF_B1.opus
tune=-20
</region>

<region>
hivel=127
key=A3
loop_end=180904
loop_mode=loop_continuous
loop_start=59029
loop_xfade=16880
lovel=0
offset=2004
sample=Basstrombone_sustain_FF_A3.opus
tune=-18
</region>

<region>
hivel=127
key=A2
loop_end=181173
loop_mode=loop_continuous
loop_start=59117
loop_xfade=16905
lovel=0
offset=2990
sample=Basstrombone_sustain_FF_A2.opus
tune=-11
</region>

<region>
hivel=127
key=A1
loop_end=166685
loop_mode=loop_continuous
loop_start=54389
loop_xfade=15553
lovel=0
offset=3563
sample=Basstrombone_sustain_FF_A1.opus
tune=-18
</region>

<region>
hivel=127
key=A#3
loop_end=181236
loop_mode=loop_continuous
loop_start=59138
loop_xfade=16910
lovel=0
offset=4706
sample=Basstrombone_sustain_FF_A#3.opus
tune=-10
</region>

<region>
hivel=127
key=A#2
loop_end=180632
loop_mode=loop_continuous
loop_start=58940
loop_xfade=16854
lovel=0
offset=2051
sample=Basstrombone_sustain_FF_A#2.opus
tune=-17
</region>

<region>
hivel=127
key=A#1
loop_end=170544
loop_mode=loop_continuous
loop_start=55649
loop_xfade=15913
lovel=0
offset=3485
sample=Basstrombone_sustain_FF_A#1.opus
tune=-11
</region>
</group>

<group>
amp_veltrack=0
ampeg_attack=0.01
ampeg_release=5
group_label=PP
trigger=release
volume=-6
xf_cccurve=gain
xfin_hicc1=42
xfout_hicc1=84
xfout_locc1=43

<region>
end=96000
hikey=A3
hivel=127
lokey=G#3
lovel=1
offset=26800
pitch_keycenter=G#3
sample=Basstrombone_fall_PP_G#4.opus
</region>

<region>
end=96000
hikey=A2
hivel=127
lokey=G#2
lovel=1
offset=26800
pitch_keycenter=G#2
sample=Basstrombone_fall_PP_G#3.opus
</region>

<region>
end=96000
hikey=A1
hivel=127
lokey=G#1
lovel=1
offset=26800
pitch_keycenter=G#1
sample=Basstrombone_fall_PP_G#2.opus
</region>

<region>
end=96000
hikey=G3
hivel=127
lokey=F#3
lovel=1
offset=26800
pitch_keycenter=F#3
sample=Basstrombone_fall_PP_F#4.opus
</region>

<region>
end=96000
hikey=G2
hivel=127
lokey=F#2
lovel=1
offset=26800
pitch_keycenter=F#2
sample=Basstrombone_fall_PP_F#3.opus
</region>

<region>
end=96000
hikey=G1
hivel=127
lokey=F#1
lovel=1
offset=26800
pitch_keycenter=F#1
sample=Basstrombone_fall_PP_F#2.opus
</region>

<region>
end=96000
hikey=F3
hivel=127
lokey=E3
lovel=1
offset=26800
pitch_keycenter=E3
sample=Basstrombone_fall_PP_E4.opus
</region>

<region>
end=96000
hikey=F2
hivel=127
lokey=E2
lovel=1
offset=26800
pitch_keycenter=E2
sample=Basstrombone_fall_PP_E3.opus
</region>

<region>
end=96000
hikey=F1
hivel=127
lokey=E1
lovel=1
offset=26800
pitch_keycenter=E1
sample=Basstrombone_fall_PP_E2.opus
</region>

<region>
end=96000
hikey=D#3
hivel=127
lokey=D3
lovel=1
offset=26800
pitch_keycenter=D3
sample=Basstrombone_fall_PP_D4.opus
</region>

<region>
end=96000
hikey=D#2
hivel=127
lokey=D2
lovel=1
offset=26800
pitch_keycenter=D2
sample=Basstrombone_fall_PP_D3.opus
</region>

<region>
end=96000
hikey=D#1
hivel=127
lokey=A#0
lovel=1
offset=26800
pitch_keycenter=D1
sample=Basstrombone_fall_PP_D2.opus
</region>

<region>
end=96000
hikey=D#5
hivel=127
lokey=C4
lovel=1
offset=26800
sample=Basstrombone_fall_PP_C5.opus
</region>

<region>
end=96000
hikey=C#3
hivel=127
lokey=C3
lovel=1
offset=26800
pitch_keycenter=C3
sample=Basstrombone_fall_PP_C4.opus
</region>

<region>
end=96000
hikey=C#2
hivel=127
lokey=C2
lovel=1
offset=26800
pitch_keycenter=C2
sample=Basstrombone_fall_PP_C3.opus
</region>

<region>
end=96000
hikey=B3
hivel=127
lokey=A#3
lovel=1
offset=26800
pitch_keycenter=A#3
sample=Basstrombone_fall_PP_A#4.opus
</region>

<region>
end=96000
hikey=B2
hivel=127
lokey=A#2
lovel=1
offset=26800
pitch_keycenter=A#2
sample=Basstrombone_fall_PP_A#3.opus
</region>

<region>
end=96000
hikey=B1
hivel=127
lokey=A#1
lovel=1
offset=26800
pitch_keycenter=A#1
sample=Basstrombone_fall_PP_A#2.opus
</region>
</group>

<group>
amp_veltrack=0
ampeg_attack=0.01
ampeg_release=5
group_label=MF
trigger=release
volume=-6
xf_cccurve=gain
xfin_hicc1=84
xfin_locc1=43
xfout_hicc1=127
xfout_locc1=85

<region>
end=96000
hikey=A3
hivel=127
lokey=G#3
lovel=1
offset=26800
pitch_keycenter=G#3
sample=Basstrombone_fall_MF_G#4.opus
</region>

<region>
end=96000
hikey=A2
hivel=127
lokey=G#2
lovel=1
offset=26800
pitch_keycenter=G#2
sample=Basstrombone_fall_MF_G#3.opus
</region>

<region>
end=96000
hikey=A1
hivel=127
lokey=G#1
lovel=1
offset=26800
pitch_keycenter=G#1
sample=Basstrombone_fall_MF_G#2.opus
</region>

<region>
end=96000
hikey=G3
hivel=127
lokey=F#3
lovel=1
offset=26800
pitch_keycenter=F#3
sample=Basstrombone_fall_MF_F#4.opus
</region>

<region>
end=96000
hikey=G2
hivel=127
lokey=F#2
lovel=1
offset=26800
pitch_keycenter=F#2
sample=Basstrombone_fall_MF_F#3.opus
</region>

<region>
end=96000
hikey=G1
hivel=127
lokey=F#1
lovel=1
offset=26800
pitch_keycenter=F#1
sample=Basstrombone_fall_MF_F#2.opus
</region>

<region>
end=96000
hikey=F3
hivel=127
lokey=E3
lovel=1
offset=26800
pitch_keycenter=E3
sample=Basstrombone_fall_MF_E4.opus
</region>

<region>
end=96000
hikey=F2
hivel=127
lokey=E2
lovel=1
offset=26800
pitch_keycenter=E2
sample=Basstrombone_fall_MF_E3.opus
</region>

<region>
end=96000
hikey=F1
hivel=127
lokey=E1
lovel=1
offset=26800
pitch_keycenter=E1
sample=Basstrombone_fall_MF_E2.opus
</region>

<region>
end=96000
hikey=D#3
hivel=127
lokey=D3
lovel=1
offset=26800
pitch_keycenter=D3
sample=Basstrombone_fall_MF_D4.opus
</region>

<region>
end=96000
hikey=D#2
hivel=127
lokey=D2
lovel=1
offset=26800
pitch_keycenter=D2
sample=Basstrombone_fall_MF_D3.opus
</region>

<region>
end=96000
hikey=D#1
hivel=127
lokey=A#0
lovel=1
offset=26800
pitch_keycenter=D1
sample=Basstrombone_fall_MF_D2.opus
</region>

<region>
end=96000
hikey=D#5
hivel=127
lokey=C4
lovel=1
offset=26800
sample=Basstrombone_fall_MF_C5.opus
</region>

<region>
end=96000
hikey=C#3
hivel=127
lokey=C3
lovel=1
offset=26800
pitch_keycenter=C3
sample=Basstrombone_fall_MF_C4.opus
</region>

<region>
end=96000
hikey=C#2
hivel=127
lokey=C2
lovel=1
offset=26800
pitch_keycenter=C2
sample=Basstrombone_fall_MF_C3.opus
</region>

<region>
end=96000
hikey=B3
hivel=127
lokey=A#3
lovel=1
offset=26800
pitch_keycenter=A#3
sample=Basstrombone_fall_MF_A#4.opus
</region>

<region>
end=96000
hikey=B2
hivel=127
lokey=A#2
lovel=1
offset=26800
pitch_keycenter=A#2
sample=Basstrombone_fall_MF_A#3.opus
</region>

<region>
end=96000
hikey=B1
hivel=127
lokey=A#1
lovel=1
offset=26800
pitch_keycenter=A#1
sample=Basstrombone_fall_MF_A#2.opus
</region>
</group>

<group>
amp_veltrack=0
ampeg_attack=0.01
ampeg_release=5
group_label=FF
trigger=release
volume=-6
xf_cccurve=gain
xfin_hicc1=127
xfin_locc1=85
xfout_hicc1=127
xfout_locc1=127

<region>
end=96000
hikey=A3
hivel=127
lokey=G#3
lovel=1
offset=26800
pitch_keycenter=G#3
sample=Basstrombone_fall_FF_G#4.opus
</region>

<region>
end=96000
hikey=A2
hivel=127
lokey=G#2
lovel=1
offset=26800
pitch_keycenter=G#2
sample=Basstrombone_fall_FF_G#3.opus
</region>

<region>
end=96000
hikey=A1
hivel=127
lokey=G#1
lovel=1
offset=26800
pitch_keycenter=G#1
sample=Basstrombone_fall_FF_G#2.opus
</region>

<region>
end=96000
hikey=G3
hivel=127
lokey=F#3
lovel=1
offset=26800
pitch_keycenter=F#3
sample=Basstrombone_fall_FF_F#4.opus
</region>

<region>
end=96000
hikey=G2
hivel=127
lokey=F#2
lovel=1
offset=26800
pitch_keycenter=F#2
sample=Basstrombone_fall_FF_F#3.opus
</region>

<region>
end=96000
hikey=G1
hivel=127
lokey=F#1
lovel=1
offset=26800
pitch_keycenter=F#1
sample=Basstrombone_fall_FF_F#2.opus
</region>

<region>
end=96000
hikey=F3
hivel=127
lokey=E3
lovel=1
offset=26800
pitch_keycenter=E3
sample=Basstrombone_fall_FF_E4.opus
</region>

<region>
end=96000
hikey=F2
hivel=127
lokey=E2
lovel=1
offset=26800
pitch_keycenter=E2
sample=Basstrombone_fall_FF_E3.opus
</region>

<region>
end=96000
hikey=F1
hivel=127
lokey=E1
lovel=1
offset=26800
pitch_keycenter=E1
sample=Basstrombone_fall_FF_E2.opus
</region>

<region>
end=96000
hikey=D#3
hivel=127
lokey=D3
lovel=1
offset=26800
pitch_keycenter=D3
sample=Basstrombone_fall_FF_D4.opus
</region>

<region>
end=96000
hikey=D#2
hivel=127
lokey=D2
lovel=1
offset=26800
pitch_keycenter=D2
sample=Basstrombone_fall_FF_D3.opus
</region>

<region>
end=96000
hikey=D#1
hivel=127
lokey=A#0
lovel=1
offset=26800
pitch_keycenter=D1
sample=Basstrombone_fall_FF_D2.opus
</region>

<region>
end=96000
hikey=D#5
hivel=127
lokey=C4
lovel=1
offset=26800
sample=Basstrombone_fall_FF_C5.opus
</region>

<region>
end=96000
hikey=C#3
hivel=127
lokey=C3
lovel=1
offset=26800
pitch_keycenter=C3
sample=Basstrombone_fall_FF_C4.opus
</region>

<region>
end=96000
hikey=C#2
hivel=127
lokey=C2
lovel=1
offset=26800
pitch_keycenter=C2
sample=Basstrombone_fall_FF_C3.opus
</region>

<region>
end=96000
hikey=B3
hivel=127
lokey=A#3
lovel=1
offset=26800
pitch_keycenter=A#3
sample=Basstrombone_fall_FF_A#4.opus
</region>

<region>
end=96000
hikey=B2
hivel=127
lokey=A#2
lovel=1
offset=26800
pitch_keycenter=A#2
sample=Basstrombone_fall_FF_A#3.opus
</region>

<region>
end=96000
hikey=B1
hivel=127
lokey=A#1
lovel=1
offset=26800
pitch_keycenter=A#1
sample=Basstrombone_fall_FF_A#2.opus
</region>
</group>